<svg viewBox="0 0 240 240" width="240" height="240" xmlns="http://www.w3.org/2000/svg">
  <defs>
    <linearGradient id="brassGrad" x1="0" y1="0" x2="1" y2="1">
      <stop offset="0%" stop-color="#5E4119"/>
      <stop offset="38%" stop-color="#A97939"/>
      <stop offset="66%" stop-color="#E0B478"/>
      <stop offset="85%" stop-color="#FFF2D6"/>
      <stop offset="100%" stop-color="#A97939"/>
    </linearGradient>
    <linearGradient id="oliveGrad" x1="0" y1="0" x2="1" y2="1">
      <stop offset="0%" stop-color="#1D2110"/>
      <stop offset="55%" stop-color="#3E461F"/>
      <stop offset="100%" stop-color="#6C7A38"/>
    </linearGradient>
  </defs>
  <rect width="240" height="240" fill="#000000"/>
  <g fill="none" stroke-width="7" stroke-linecap="round" stroke-linejoin="round">
    <path d="M 52 88 L 22 100 L 52 112" stroke="url(#oliveGrad)"/>
    <path d="M 48 114 L 22 126 L 48 138" stroke="url(#oliveGrad)"/>
    <path d="M 44 140 L 22 152 L 44 164" stroke="url(#oliveGrad)"/>
    <path d="M 188 88 L 218 100 L 188 112" stroke="url(#brassGrad)"/>
    <path d="M 192 114 L 218 126 L 192 138" stroke="url(#brassGrad)"/>
    <path d="M 196 140 L 218 152 L 196 164" stroke="url(#brassGrad)"/>
  </g>
  <path d="M120 24 L182 54 L182 128 Q182 176 120 214 Q58 176 58 128 L58 54 Z" fill="url(#oliveGrad)" stroke="url(#brassGrad)" stroke-width="4"/>
  <path d="M120 40 L168 63 L168 126 Q168 164 120 195 Q72 164 72 126 L72 63 Z" fill="none" stroke="url(#brassGrad)" stroke-width="2" opacity="0.7"/>
  <path d="M120 70 C132 70 142 79 145 92 L157 96 L146 104 C147 116 141 126 130 131 L133 142 L120 137 C108 141 96 137 90 127 C84 117 86 104 95 97 C99 82 108 70 120 70 Z" fill="url(#brassGrad)"/>
  <circle cx="126" cy="92" r="3.4" fill="#0B0C08"/>
  <path d="M157 96 L170 99 L157 102 Z" fill="url(#brassGrad)"/>
</svg>
